<svg width="50" height="41" viewBox="0 0 50 41" fill="none" xmlns="http://www.w3.org/2000/svg">
<g filter="url(#filter0_d_5_21)">
<path d="M14.3125 21.1484C14.2539 21.2422 14.166 21.3242 14.0488 21.3945C13.9434 21.4531 13.8379 21.4824 13.7324 21.4824C13.6035 21.4824 13.4805 21.4414 13.3633 21.3594C12.7422 20.9375 12.1914 20.5625 11.7109 20.2344C11.2422 19.8945 10.7969 19.584 10.375 19.3027C9.96484 19.0098 9.57227 18.7402 9.19727 18.4941C8.82227 18.2363 8.42969 17.9785 8.01953 17.7207C7.62109 17.4512 7.18164 17.1758 6.70117 16.8945C6.23242 16.6133 5.69336 16.3027 5.08398 15.9629C4.86133 15.834 4.75 15.6348 4.75 15.3652C4.75 15.1074 4.87305 14.9141 5.11914 14.7852C5.91602 14.3516 6.66602 13.8945 7.36914 13.4141C8.07227 12.9219 8.72266 12.4355 9.32031 11.9551C9.92969 11.4629 10.4746 10.9941 10.9551 10.5488C11.4355 10.1035 11.8457 9.71094 12.1855 9.37109C12.5254 9.03125 12.7891 8.75586 12.9766 8.54492C13.1641 8.33398 13.2637 8.22266 13.2754 8.21094C13.416 8.03516 13.5918 7.94727 13.8027 7.94727C13.9902 7.94727 14.1484 8.01758 14.2773 8.1582C14.4062 8.28711 14.4707 8.43945 14.4707 8.61523C14.4707 8.7793 14.4297 8.9082 14.3477 9.00195C14.3008 9.07227 14.0957 9.30664 13.7324 9.70508C13.3809 10.1035 12.8828 10.6016 12.2383 11.1992C11.5938 11.7969 10.8145 12.4648 9.90039 13.2031C8.98633 13.9297 7.94922 14.6504 6.78906 15.3652C7.33984 15.6934 7.82031 15.9863 8.23047 16.2441C8.65234 16.502 9.03906 16.748 9.39062 16.9824C9.75391 17.2051 10.0938 17.4277 10.4102 17.6504C10.7383 17.873 11.084 18.1133 11.4473 18.3711C11.8105 18.6172 12.209 18.8926 12.6426 19.1973C13.0762 19.502 13.5801 19.8477 14.1543 20.2344C14.3418 20.3633 14.4355 20.5449 14.4355 20.7793C14.4355 20.9082 14.3945 21.0312 14.3125 21.1484ZM18.3906 26.334C18.2617 26.5566 18.0742 26.668 17.8281 26.668C17.6289 26.668 17.4648 26.5977 17.3359 26.457C17.2188 26.3164 17.1602 26.1641 17.1602 26C17.1602 25.8945 17.1777 25.8066 17.2129 25.7363C17.248 25.666 17.2832 25.6016 17.3184 25.543L31.6094 1.07422C31.668 0.96875 31.75 0.886719 31.8555 0.828125C31.9727 0.769531 32.084 0.740234 32.1895 0.740234C32.3887 0.740234 32.5469 0.810547 32.6641 0.951172C32.7812 1.0918 32.8398 1.24414 32.8398 1.4082C32.8398 1.49023 32.8164 1.57813 32.7695 1.67188C32.7344 1.76562 32.6992 1.8418 32.6641 1.90039L18.3906 26.334ZM35.6699 21.1484C35.5879 21.0312 35.5469 20.9082 35.5469 20.7793C35.5469 20.5449 35.6406 20.3633 35.8281 20.2344C36.4023 19.8477 36.9062 19.502 37.3398 19.1973C37.7734 18.8926 38.1719 18.6172 38.5352 18.3711C38.8984 18.1133 39.2383 17.873 39.5547 17.6504C39.8828 17.4277 40.2227 17.2051 40.5742 16.9824C40.9375 16.748 41.3242 16.502 41.7344 16.2441C42.1562 15.9863 42.6426 15.6934 43.1934 15.3652C42.0332 14.6504 40.9961 13.9297 40.082 13.2031C39.168 12.4648 38.3887 11.7969 37.7441 11.1992C37.0996 10.6016 36.5957 10.1035 36.2324 9.70508C35.8809 9.30664 35.6816 9.07227 35.6348 9.00195C35.5527 8.9082 35.5117 8.7793 35.5117 8.61523C35.5117 8.43945 35.5762 8.28711 35.7051 8.1582C35.834 8.01758 35.9922 7.94727 36.1797 7.94727C36.3906 7.94727 36.5664 8.03516 36.707 8.21094C36.7188 8.22266 36.8184 8.33398 37.0059 8.54492C37.1934 8.75586 37.457 9.03125 37.7969 9.37109C38.1367 9.71094 38.5469 10.1035 39.0273 10.5488C39.5078 10.9941 40.0469 11.4629 40.6445 11.9551C41.2539 12.4355 41.9102 12.9219 42.6133 13.4141C43.3281 13.8945 44.0781 14.3516 44.8633 14.7852C45.1094 14.9141 45.2324 15.1074 45.2324 15.3652C45.2324 15.6348 45.1211 15.834 44.8984 15.9629C44.2891 16.3027 43.7441 16.6133 43.2637 16.8945C42.7949 17.1758 42.3555 17.4512 41.9453 17.7207C41.5469 17.9785 41.1602 18.2363 40.7852 18.4941C40.4102 18.7402 40.0117 19.0098 39.5898 19.3027C39.1797 19.584 38.7344 19.8945 38.2539 20.2344C37.7734 20.5625 37.2285 20.9375 36.6191 21.3594C36.502 21.4414 36.3789 21.4824 36.25 21.4824C36.1445 21.4824 36.0332 21.4531 35.916 21.3945C35.8105 21.3242 35.7285 21.2422 35.6699 21.1484Z" fill="url(#paint0_linear_5_21)"/>
</g>
<defs>
<filter id="filter0_d_5_21" x="0.75" y="0.740234" width="48.4824" height="33.9277" filterUnits="userSpaceOnUse" color-interpolation-filters="sRGB">
<feFlood flood-opacity="0" result="BackgroundImageFix"/>
<feColorMatrix in="SourceAlpha" type="matrix" values="0 0 0 0 0 0 0 0 0 0 0 0 0 0 0 0 0 0 127 0" result="hardAlpha"/>
<feOffset dy="4"/>
<feGaussianBlur stdDeviation="2"/>
<feComposite in2="hardAlpha" operator="out"/>
<feColorMatrix type="matrix" values="0 0 0 0 0 0 0 0 0 0 0 0 0 0 0 0 0 0 0.25 0"/>
<feBlend mode="normal" in2="BackgroundImageFix" result="effect1_dropShadow_5_21"/>
<feBlend mode="normal" in="SourceGraphic" in2="effect1_dropShadow_5_21" result="shape"/>
</filter>
<linearGradient id="paint0_linear_5_21" x1="14" y1="22" x2="32.5" y2="9" gradientUnits="userSpaceOnUse">
<stop stop-color="#FFE838"/>
<stop offset="1" stop-color="#FD57BF"/>
</linearGradient>
</defs>
</svg>
