<svg width="31" height="23" viewBox="0 0 31 23" fill="none" xmlns="http://www.w3.org/2000/svg">
<path d="M8.375 18.7656C8.33594 18.8281 8.27734 18.8828 8.19922 18.9297C8.12891 18.9688 8.05859 18.9883 7.98828 18.9883C7.90234 18.9883 7.82031 18.9609 7.74219 18.9062C7.32812 18.625 6.96094 18.375 6.64062 18.1562C6.32812 17.9297 6.03125 17.7227 5.75 17.5352C5.47656 17.3398 5.21484 17.1602 4.96484 16.9961C4.71484 16.8242 4.45312 16.6523 4.17969 16.4805C3.91406 16.3008 3.62109 16.1172 3.30078 15.9297C2.98828 15.7422 2.62891 15.5352 2.22266 15.3086C2.07422 15.2227 2 15.0898 2 14.9102C2 14.7383 2.08203 14.6094 2.24609 14.5234C2.77734 14.2344 3.27734 13.9297 3.74609 13.6094C4.21484 13.2812 4.64844 12.957 5.04688 12.6367C5.45312 12.3086 5.81641 11.9961 6.13672 11.6992C6.45703 11.4023 6.73047 11.1406 6.95703 10.9141C7.18359 10.6875 7.35938 10.5039 7.48438 10.3633C7.60938 10.2227 7.67578 10.1484 7.68359 10.1406C7.77734 10.0234 7.89453 9.96484 8.03516 9.96484C8.16016 9.96484 8.26562 10.0117 8.35156 10.1055C8.4375 10.1914 8.48047 10.293 8.48047 10.4102C8.48047 10.5195 8.45312 10.6055 8.39844 10.668C8.36719 10.7148 8.23047 10.8711 7.98828 11.1367C7.75391 11.4023 7.42188 11.7344 6.99219 12.1328C6.5625 12.5312 6.04297 12.9766 5.43359 13.4688C4.82422 13.9531 4.13281 14.4336 3.35938 14.9102C3.72656 15.1289 4.04688 15.3242 4.32031 15.4961C4.60156 15.668 4.85938 15.832 5.09375 15.9883C5.33594 16.1367 5.5625 16.2852 5.77344 16.4336C5.99219 16.582 6.22266 16.7422 6.46484 16.9141C6.70703 17.0781 6.97266 17.2617 7.26172 17.4648C7.55078 17.668 7.88672 17.8984 8.26953 18.1562C8.39453 18.2422 8.45703 18.3633 8.45703 18.5195C8.45703 18.6055 8.42969 18.6875 8.375 18.7656ZM11.0938 22.2227C11.0078 22.3711 10.8828 22.4453 10.7188 22.4453C10.5859 22.4453 10.4766 22.3984 10.3906 22.3047C10.3125 22.2109 10.2734 22.1094 10.2734 22C10.2734 21.9297 10.2852 21.8711 10.3086 21.8242C10.332 21.7773 10.3555 21.7344 10.3789 21.6953L19.9062 5.38281C19.9453 5.3125 20 5.25781 20.0703 5.21875C20.1484 5.17969 20.2227 5.16016 20.293 5.16016C20.4258 5.16016 20.5312 5.20703 20.6094 5.30078C20.6875 5.39453 20.7266 5.49609 20.7266 5.60547C20.7266 5.66016 20.7109 5.71875 20.6797 5.78125C20.6562 5.84375 20.6328 5.89453 20.6094 5.93359L11.0938 22.2227ZM22.6133 18.7656C22.5586 18.6875 22.5312 18.6055 22.5312 18.5195C22.5312 18.3633 22.5938 18.2422 22.7188 18.1562C23.1016 17.8984 23.4375 17.668 23.7266 17.4648C24.0156 17.2617 24.2812 17.0781 24.5234 16.9141C24.7656 16.7422 24.9922 16.582 25.2031 16.4336C25.4219 16.2852 25.6484 16.1367 25.8828 15.9883C26.125 15.832 26.3828 15.668 26.6562 15.4961C26.9375 15.3242 27.2617 15.1289 27.6289 14.9102C26.8555 14.4336 26.1641 13.9531 25.5547 13.4688C24.9453 12.9766 24.4258 12.5312 23.9961 12.1328C23.5664 11.7344 23.2305 11.4023 22.9883 11.1367C22.7539 10.8711 22.6211 10.7148 22.5898 10.668C22.5352 10.6055 22.5078 10.5195 22.5078 10.4102C22.5078 10.293 22.5508 10.1914 22.6367 10.1055C22.7227 10.0117 22.8281 9.96484 22.9531 9.96484C23.0938 9.96484 23.2109 10.0234 23.3047 10.1406C23.3125 10.1484 23.3789 10.2227 23.5039 10.3633C23.6289 10.5039 23.8047 10.6875 24.0312 10.9141C24.2578 11.1406 24.5312 11.4023 24.8516 11.6992C25.1719 11.9961 25.5312 12.3086 25.9297 12.6367C26.3359 12.957 26.7734 13.2812 27.2422 13.6094C27.7188 13.9297 28.2188 14.2344 28.7422 14.5234C28.9062 14.6094 28.9883 14.7383 28.9883 14.9102C28.9883 15.0898 28.9141 15.2227 28.7656 15.3086C28.3594 15.5352 27.9961 15.7422 27.6758 15.9297C27.3633 16.1172 27.0703 16.3008 26.7969 16.4805C26.5312 16.6523 26.2734 16.8242 26.0234 16.9961C25.7734 17.1602 25.5078 17.3398 25.2266 17.5352C24.9531 17.7227 24.6562 17.9297 24.3359 18.1562C24.0156 18.375 23.6523 18.625 23.2461 18.9062C23.168 18.9609 23.0859 18.9883 23 18.9883C22.9297 18.9883 22.8555 18.9688 22.7773 18.9297C22.707 18.8828 22.6523 18.8281 22.6133 18.7656Z" fill="#5429CF"/>
</svg>
