<svg width="85" height="27" viewBox="0 0 85 27" fill="none" xmlns="http://www.w3.org/2000/svg">
<g filter="url(#filter0_d_5_12)">
<path d="M12.5 14.7656C12.4609 14.8281 12.4023 14.8828 12.3242 14.9297C12.2539 14.9688 12.1836 14.9883 12.1133 14.9883C12.0273 14.9883 11.9453 14.9609 11.8672 14.9062C11.4531 14.625 11.0859 14.375 10.7656 14.1562C10.4531 13.9297 10.1562 13.7227 9.875 13.5352C9.60156 13.3398 9.33984 13.1602 9.08984 12.9961C8.83984 12.8242 8.57812 12.6523 8.30469 12.4805C8.03906 12.3008 7.74609 12.1172 7.42578 11.9297C7.11328 11.7422 6.75391 11.5352 6.34766 11.3086C6.19922 11.2227 6.125 11.0898 6.125 10.9102C6.125 10.7383 6.20703 10.6094 6.37109 10.5234C6.90234 10.2344 7.40234 9.92969 7.87109 9.60938C8.33984 9.28125 8.77344 8.95703 9.17188 8.63672C9.57812 8.30859 9.94141 7.99609 10.2617 7.69922C10.582 7.40234 10.8555 7.14062 11.082 6.91406C11.3086 6.6875 11.4844 6.50391 11.6094 6.36328C11.7344 6.22266 11.8008 6.14844 11.8086 6.14062C11.9023 6.02344 12.0195 5.96484 12.1602 5.96484C12.2852 5.96484 12.3906 6.01172 12.4766 6.10547C12.5625 6.19141 12.6055 6.29297 12.6055 6.41016C12.6055 6.51953 12.5781 6.60547 12.5234 6.66797C12.4922 6.71484 12.3555 6.87109 12.1133 7.13672C11.8789 7.40234 11.5469 7.73438 11.1172 8.13281C10.6875 8.53125 10.168 8.97656 9.55859 9.46875C8.94922 9.95312 8.25781 10.4336 7.48438 10.9102C7.85156 11.1289 8.17188 11.3242 8.44531 11.4961C8.72656 11.668 8.98438 11.832 9.21875 11.9883C9.46094 12.1367 9.6875 12.2852 9.89844 12.4336C10.1172 12.582 10.3477 12.7422 10.5898 12.9141C10.832 13.0781 11.0977 13.2617 11.3867 13.4648C11.6758 13.668 12.0117 13.8984 12.3945 14.1562C12.5195 14.2422 12.582 14.3633 12.582 14.5195C12.582 14.6055 12.5547 14.6875 12.5 14.7656ZM34.8594 16.0898C34.8516 16.1055 34.8047 16.1719 34.7188 16.2891C34.6328 16.4062 34.5078 16.5508 34.3438 16.7227C34.1875 16.8867 33.9883 17.0664 33.7461 17.2617C33.5117 17.4492 33.2305 17.625 32.9023 17.7891C32.582 17.9453 32.2188 18.0781 31.8125 18.1875C31.4062 18.2969 30.957 18.3516 30.4648 18.3516C29.6992 18.3516 28.9805 18.2539 28.3086 18.0586C27.6367 17.8711 26.9883 17.6289 26.3633 17.332C25.7461 17.0352 25.1367 16.707 24.5352 16.3477C23.9336 15.9883 23.3203 15.6367 22.6953 15.293C22.3125 15.9336 21.8711 16.457 21.3711 16.8633C20.8789 17.2617 20.3633 17.5742 19.8242 17.8008C19.293 18.0273 18.7617 18.1797 18.2305 18.2578C17.707 18.3438 17.2227 18.3867 16.7773 18.3867C16.3477 18.3867 15.9102 18.3398 15.4648 18.2461C15.0273 18.1602 14.6289 18.0156 14.2695 17.8125C13.918 17.6016 13.6289 17.3281 13.4023 16.9922C13.1758 16.6562 13.0625 16.2383 13.0625 15.7383C13.0625 15.2695 13.1719 14.8477 13.3906 14.4727C13.6016 14.0898 13.8945 13.7656 14.2695 13.5C14.6523 13.2344 15.1016 13.0312 15.6172 12.8906C16.1328 12.7422 16.6875 12.668 17.2812 12.668C17.7266 12.668 18.168 12.707 18.6055 12.7852C19.0508 12.8633 19.4844 12.9688 19.9062 13.1016C20.3281 13.2344 20.7383 13.3867 21.1367 13.5586C21.5352 13.7227 21.9102 13.8906 22.2617 14.0625C22.3086 13.9219 22.3477 13.7812 22.3789 13.6406C22.418 13.5 22.4492 13.3477 22.4727 13.1836C22.5039 13.0117 22.5234 12.8242 22.5312 12.6211C22.5469 12.4102 22.5547 12.168 22.5547 11.8945C22.5547 11.6367 22.5469 11.3906 22.5312 11.1562C22.5234 10.9219 22.5117 10.668 22.4961 10.3945C22.4883 10.1133 22.4766 9.80078 22.4609 9.45703C22.4531 9.10547 22.4492 8.6875 22.4492 8.20312C22.4492 7.08594 22.5586 6.07031 22.7773 5.15625C22.9961 4.23437 23.3203 3.44531 23.75 2.78906C24.1797 2.13281 24.7148 1.625 25.3555 1.26562C25.9961 0.898438 26.7422 0.714844 27.5938 0.714844C28.1094 0.714844 28.5977 0.796875 29.0586 0.960938C29.5273 1.125 29.9375 1.35938 30.2891 1.66406C30.6484 1.96875 30.9297 2.33203 31.1328 2.75391C31.3438 3.17578 31.4492 3.64453 31.4492 4.16016C31.4492 4.44141 31.4102 4.73438 31.332 5.03906C31.2539 5.34375 31.1445 5.625 31.0039 5.88281C30.8711 6.13281 30.7148 6.33984 30.5352 6.50391C30.3633 6.66797 30.1797 6.75 29.9844 6.75C29.875 6.75 29.7773 6.71875 29.6914 6.65625C29.6055 6.59375 29.5625 6.49609 29.5625 6.36328C29.5625 6.26953 29.582 6.19141 29.6211 6.12891C29.668 6.05859 29.7227 5.99609 29.7852 5.94141C30.0117 5.73828 30.1953 5.48828 30.3359 5.19141C30.4844 4.89453 30.5586 4.55078 30.5586 4.16016C30.5586 3.76953 30.4766 3.41797 30.3125 3.10547C30.1562 2.78516 29.9414 2.51563 29.668 2.29688C29.4023 2.07031 29.0898 1.89844 28.7305 1.78125C28.3789 1.65625 28.0078 1.59375 27.6172 1.59375C26.8828 1.59375 26.2461 1.75391 25.707 2.07422C25.168 2.39453 24.7227 2.84766 24.3711 3.43359C24.0195 4.01172 23.7578 4.71484 23.5859 5.54297C23.4219 6.36328 23.3398 7.27734 23.3398 8.28516C23.3398 8.76953 23.3438 9.19531 23.3516 9.5625C23.3672 9.92969 23.3789 10.2656 23.3867 10.5703C23.4023 10.875 23.4141 11.1641 23.4219 11.4375C23.4375 11.7031 23.4453 11.9766 23.4453 12.2578C23.4453 12.4219 23.4375 12.6016 23.4219 12.7969C23.4062 12.9844 23.3828 13.1797 23.3516 13.3828C23.3203 13.5781 23.2773 13.7734 23.2227 13.9688C23.1758 14.1562 23.1211 14.3281 23.0586 14.4844C23.6523 14.7969 24.2383 15.1289 24.8164 15.4805C25.3945 15.832 25.9805 16.1562 26.5742 16.4531C27.1758 16.7422 27.793 16.9844 28.4258 17.1797C29.0664 17.3672 29.7422 17.4609 30.4531 17.4609C31.0781 17.4609 31.6172 17.3672 32.0703 17.1797C32.5312 16.9922 32.9102 16.7852 33.207 16.5586C33.5117 16.3242 33.7383 16.1133 33.8867 15.9258C34.0352 15.7305 34.1094 15.6289 34.1094 15.6211C34.1953 15.4805 34.3203 15.4102 34.4844 15.4102C34.6172 15.4102 34.7227 15.457 34.8008 15.5508C34.8867 15.6445 34.9297 15.7461 34.9297 15.8555C34.9297 15.9414 34.9062 16.0195 34.8594 16.0898ZM21.9219 14.8594C21.5859 14.6953 21.2305 14.5352 20.8555 14.3789C20.4883 14.2148 20.1094 14.0703 19.7188 13.9453C19.3281 13.8203 18.9258 13.7227 18.5117 13.6523C18.1055 13.5742 17.6992 13.5352 17.293 13.5352C16.832 13.5352 16.3984 13.5859 15.9922 13.6875C15.5859 13.7812 15.2305 13.9219 14.9258 14.1094C14.6211 14.2969 14.3789 14.5234 14.1992 14.7891C14.0273 15.0547 13.9414 15.3555 13.9414 15.6914C13.9414 16.0039 14.0195 16.2773 14.1758 16.5117C14.332 16.7383 14.5391 16.9297 14.7969 17.0859C15.0625 17.2344 15.3672 17.3477 15.7109 17.4258C16.0547 17.4961 16.4141 17.5312 16.7891 17.5312C17.2422 17.5312 17.7109 17.4961 18.1953 17.4258C18.6797 17.3477 19.1484 17.2109 19.6016 17.0156C20.0547 16.8125 20.4805 16.5391 20.8789 16.1953C21.2773 15.8438 21.625 15.3984 21.9219 14.8594ZM37.7539 8.80078C37.7539 9.09766 37.6484 9.35156 37.4375 9.5625C37.2344 9.76562 36.9844 9.86719 36.6875 9.86719C36.3906 9.86719 36.1367 9.76562 35.9258 9.5625C35.7227 9.35156 35.6211 9.09766 35.6211 8.80078C35.6211 8.65234 35.6484 8.51562 35.7031 8.39062C35.7578 8.25781 35.832 8.14453 35.9258 8.05078C36.0273 7.94922 36.1406 7.87109 36.2656 7.81641C36.3984 7.76172 36.5391 7.73438 36.6875 7.73438C36.8359 7.73438 36.9727 7.76172 37.0977 7.81641C37.2305 7.87109 37.3438 7.94922 37.4375 8.05078C37.5391 8.14453 37.6172 8.25781 37.6719 8.39062C37.7266 8.51562 37.7539 8.65234 37.7539 8.80078ZM35.8555 15.668C35.8555 14.543 35.9258 13.4219 36.0664 12.3047C36.082 12.1953 36.1289 12.1016 36.207 12.0234C36.293 11.9375 36.4023 11.8945 36.5352 11.8945C36.6523 11.8945 36.75 11.9414 36.8281 12.0352C36.9062 12.1211 36.9453 12.2227 36.9453 12.3398C36.9453 12.3867 36.9336 12.5273 36.9102 12.7617C36.8945 12.9961 36.8711 13.2773 36.8398 13.6055C36.8164 13.9258 36.793 14.2695 36.7695 14.6367C36.7539 14.9961 36.7461 15.3281 36.7461 15.6328C36.7461 16.0469 36.7852 16.3828 36.8633 16.6406C36.9492 16.8906 37.0547 17.0859 37.1797 17.2266C37.3125 17.3672 37.4492 17.4609 37.5898 17.5078C37.7383 17.5547 37.8789 17.5781 38.0117 17.5781C38.2305 17.5781 38.457 17.5 38.6914 17.3438C38.9258 17.1875 39.1641 16.9688 39.4062 16.6875C39.6562 16.4062 39.9062 16.0703 40.1562 15.6797C40.4062 15.2812 40.6523 14.8398 40.8945 14.3555C40.9336 14.2773 40.9883 14.2188 41.0586 14.1797C41.1289 14.1328 41.207 14.1094 41.293 14.1094C41.418 14.1094 41.5195 14.1562 41.5977 14.25C41.6836 14.3438 41.7266 14.4453 41.7266 14.5547C41.7266 14.6328 41.7109 14.6992 41.6797 14.7539C41.5859 14.9336 41.4688 15.1523 41.3281 15.4102C41.1875 15.668 41.0273 15.9336 40.8477 16.207C40.668 16.4805 40.4688 16.7539 40.25 17.0273C40.0391 17.293 39.8125 17.5352 39.5703 17.7539C39.3281 17.9648 39.0742 18.1367 38.8086 18.2695C38.543 18.4023 38.2734 18.4688 38 18.4688C37.6484 18.4688 37.3398 18.3945 37.0742 18.2461C36.8086 18.0977 36.582 17.8984 36.3945 17.6484C36.2148 17.3984 36.0781 17.1055 35.9844 16.7695C35.8984 16.4258 35.8555 16.0586 35.8555 15.668ZM37.0977 8.80078C37.0977 8.69141 37.0547 8.59766 36.9688 8.51953C36.8906 8.43359 36.7969 8.39062 36.6875 8.39062C36.5781 8.39062 36.4844 8.43359 36.4062 8.51953C36.3281 8.59766 36.2891 8.69141 36.2891 8.80078C36.2891 8.91016 36.3281 9.00391 36.4062 9.08203C36.4844 9.16016 36.5781 9.19922 36.6875 9.19922C36.7969 9.19922 36.8906 9.16016 36.9688 9.08203C37.0547 9.00391 37.0977 8.91016 37.0977 8.80078ZM43.4844 16.9453C43.6094 16.6875 43.7539 16.4062 43.918 16.1016C44.082 15.7891 44.2578 15.4766 44.4453 15.1641C44.6328 14.8438 44.8281 14.5273 45.0312 14.2148C45.2422 13.9023 45.4609 13.6055 45.6875 13.3242C45.9141 13.0508 46.1406 12.8555 46.3672 12.7383C46.6016 12.6133 46.8203 12.5508 47.0234 12.5508C47.4297 12.5508 47.7305 12.6992 47.9258 12.9961C48.1211 13.293 48.2188 13.6602 48.2188 14.0977C48.2188 14.1992 48.2109 14.3242 48.1953 14.4727C48.1875 14.6133 48.1758 14.7656 48.1602 14.9297C48.1523 15.0938 48.1406 15.2617 48.125 15.4336C48.1172 15.5977 48.1133 15.7539 48.1133 15.9023C48.1133 16.0898 48.1211 16.2695 48.1367 16.4414C48.1602 16.6133 48.1992 16.7656 48.2539 16.8984C48.3086 17.0234 48.3867 17.125 48.4883 17.2031C48.5898 17.2734 48.7227 17.3086 48.8867 17.3086C49.1836 17.3086 49.4727 17.1953 49.7539 16.9688C50.0352 16.7344 50.293 16.4609 50.5273 16.1484C50.7695 15.8281 50.9766 15.5039 51.1484 15.1758C51.3281 14.8477 51.4609 14.582 51.5469 14.3789C51.5859 14.293 51.6406 14.2266 51.7109 14.1797C51.7891 14.1328 51.8711 14.1094 51.957 14.1094C52.0898 14.1094 52.1953 14.1602 52.2734 14.2617C52.3594 14.3555 52.4023 14.457 52.4023 14.5664C52.4023 14.6211 52.3906 14.6758 52.3672 14.7305C52.3359 14.793 52.2734 14.9219 52.1797 15.1172C52.0859 15.3125 51.9609 15.5391 51.8047 15.7969C51.6562 16.0469 51.4805 16.3164 51.2773 16.6055C51.0742 16.8867 50.8477 17.1445 50.5977 17.3789C50.3555 17.6133 50.0898 17.8086 49.8008 17.9648C49.5195 18.1211 49.2227 18.1992 48.9102 18.1992C48.5586 18.1992 48.2734 18.1328 48.0547 18C47.8359 17.8594 47.6641 17.6797 47.5391 17.4609C47.4141 17.2344 47.3281 16.9883 47.2812 16.7227C47.2422 16.4492 47.2227 16.1758 47.2227 15.9023C47.2227 15.7852 47.2266 15.6523 47.2344 15.5039C47.25 15.3555 47.2656 15.1992 47.2812 15.0352C47.3047 14.8711 47.3203 14.707 47.3281 14.543C47.3438 14.3789 47.3516 14.2227 47.3516 14.0742C47.3516 13.8242 47.3125 13.6562 47.2344 13.5703C47.1562 13.4766 47.0859 13.4297 47.0234 13.4297C46.8984 13.4297 46.7539 13.5039 46.5898 13.6523C46.4336 13.793 46.2656 13.9805 46.0859 14.2148C45.9141 14.4492 45.7344 14.7148 45.5469 15.0117C45.3672 15.3008 45.1953 15.5898 45.0312 15.8789C44.875 16.168 44.7266 16.4453 44.5859 16.7109C44.4531 16.9688 44.3477 17.1836 44.2695 17.3555C44.1133 17.6836 43.957 17.9023 43.8008 18.0117C43.6445 18.1289 43.4844 18.1875 43.3203 18.1875C43.0938 18.1875 42.9102 18.1211 42.7695 17.9883C42.6367 17.8477 42.5703 17.6523 42.5703 17.4023C42.5703 17.3477 42.5781 17.2422 42.5938 17.0859C42.6094 16.9219 42.6289 16.7305 42.6523 16.5117C42.6758 16.2852 42.6992 16.043 42.7227 15.7852C42.7461 15.5273 42.7695 15.2734 42.793 15.0234C42.8164 14.7656 42.8359 14.5273 42.8516 14.3086C42.8672 14.0898 42.875 13.9062 42.875 13.7578C42.875 13.5625 42.8672 13.375 42.8516 13.1953C42.8359 13.0156 42.8047 12.9062 42.7578 12.8672C42.6875 12.8906 42.5625 13.0391 42.3828 13.3125C42.2031 13.5781 41.9727 14.0508 41.6914 14.7305C41.6523 14.8164 41.5938 14.8828 41.5156 14.9297C41.4375 14.9766 41.3555 15 41.2695 15C41.1367 15 41.0312 14.957 40.9531 14.8711C40.875 14.7773 40.8359 14.6719 40.8359 14.5547C40.8359 14.5 40.8477 14.4414 40.8711 14.3789C41.2227 13.543 41.5508 12.9297 41.8555 12.5391C42.168 12.1406 42.4766 11.9414 42.7812 11.9414C42.9609 11.9414 43.1133 11.9883 43.2383 12.082C43.3633 12.168 43.4609 12.2852 43.5312 12.4336C43.6094 12.582 43.6641 12.7461 43.6953 12.9258C43.7344 13.1055 43.7539 13.2891 43.7539 13.4766C43.7539 13.6172 43.7422 13.8359 43.7188 14.1328C43.7031 14.4297 43.6797 14.75 43.6484 15.0938C43.6172 15.4297 43.5859 15.7656 43.5547 16.1016C43.5312 16.4375 43.5078 16.7188 43.4844 16.9453ZM54.5234 16.5586C54.6562 16.8555 54.875 17.0938 55.1797 17.2734C55.4844 17.4453 55.8281 17.5312 56.2109 17.5312C56.3281 17.5312 56.5195 17.5156 56.7852 17.4844C57.0508 17.4453 57.3555 17.3281 57.6992 17.1328C58.0508 16.9297 58.4219 16.6133 58.8125 16.1836C59.2031 15.7539 59.582 15.1484 59.9492 14.3672C59.9883 14.2812 60.043 14.2188 60.1133 14.1797C60.1836 14.1328 60.2617 14.1094 60.3477 14.1094C60.4805 14.1094 60.5859 14.1562 60.6641 14.25C60.75 14.3438 60.793 14.4453 60.793 14.5547C60.793 14.6016 60.7773 14.6641 60.7461 14.7422C60.4727 15.3125 60.168 15.8242 59.832 16.2773C59.4961 16.7227 59.1328 17.1055 58.7422 17.4258C58.3516 17.7383 57.9414 17.9766 57.5117 18.1406C57.0898 18.3125 56.6562 18.3984 56.2109 18.3984C55.8594 18.3984 55.5273 18.3438 55.2148 18.2344C54.9102 18.125 54.6445 17.9805 54.418 17.8008C54.1992 17.6133 54.0234 17.4062 53.8906 17.1797C53.7656 16.9453 53.7031 16.707 53.7031 16.4648C53.7031 16.4336 53.707 16.3906 53.7148 16.3359C53.7227 16.2812 53.7422 16.2227 53.7734 16.1602C53.8125 16.0898 53.8633 16.0273 53.9258 15.9727C53.9961 15.9102 54.0898 15.8594 54.207 15.8203C54.5273 15.7266 54.8203 15.6133 55.0859 15.4805C55.3594 15.3398 55.5938 15.1836 55.7891 15.0117C55.9844 14.8398 56.1367 14.6523 56.2461 14.4492C56.3555 14.2383 56.4102 14.0117 56.4102 13.7695C56.4102 13.5586 56.3398 13.3867 56.1992 13.2539C56.0586 13.1211 55.8867 13.0547 55.6836 13.0547C55.4727 13.0547 55.2656 13.1289 55.0625 13.2773C54.8594 13.418 54.6602 13.6094 54.4648 13.8516C54.2773 14.0859 54.0977 14.3594 53.9258 14.6719C53.7539 14.9766 53.5938 15.2969 53.4453 15.6328C53.3047 15.9688 53.1797 16.3047 53.0703 16.6406C52.9609 16.9688 52.8711 17.2734 52.8008 17.5547C52.7773 17.6406 52.75 17.7344 52.7188 17.8359C52.6953 17.9375 52.6562 18.0312 52.6016 18.1172C52.5469 18.2109 52.4805 18.2852 52.4023 18.3398C52.3242 18.4023 52.2227 18.4336 52.0977 18.4336C51.9805 18.4336 51.8672 18.3828 51.7578 18.2812C51.6484 18.1875 51.5938 18.0234 51.5938 17.7891C51.5938 17.7422 51.5938 17.5625 51.5938 17.25C51.6016 16.9375 51.6094 16.5312 51.6172 16.0312C51.625 15.5234 51.6328 14.9453 51.6406 14.2969C51.6562 13.6406 51.668 12.9492 51.6758 12.2227C51.6836 11.4883 51.6953 10.7344 51.7109 9.96094C51.7266 9.1875 51.7383 8.43359 51.7461 7.69922C51.7539 6.96484 51.7617 6.26953 51.7695 5.61328C51.7852 4.94922 51.7969 4.36328 51.8047 3.85547C51.8125 3.33984 51.8164 2.92187 51.8164 2.60156C51.8242 2.27344 51.8281 2.07812 51.8281 2.01562C51.8281 1.89062 51.875 1.78906 51.9688 1.71094C52.0625 1.625 52.1641 1.58203 52.2734 1.58203C52.3984 1.58203 52.5039 1.625 52.5898 1.71094C52.6758 1.78906 52.7188 1.89453 52.7188 2.02734C52.7188 2.04297 52.7148 2.19922 52.707 2.49609C52.707 2.78516 52.7031 3.17578 52.6953 3.66797C52.6875 4.16016 52.6758 4.73438 52.6602 5.39062C52.6523 6.04688 52.6406 6.74609 52.625 7.48828C52.6172 8.22266 52.6055 8.98047 52.5898 9.76172C52.582 10.543 52.5703 11.3047 52.5547 12.0469C52.5469 12.7891 52.5391 13.4961 52.5312 14.168C52.5234 14.8398 52.5156 15.4336 52.5078 15.9492C52.6328 15.5508 52.793 15.1328 52.9883 14.6953C53.1836 14.25 53.4141 13.8398 53.6797 13.4648C53.9453 13.0898 54.2422 12.7812 54.5703 12.5391C54.9062 12.2969 55.2773 12.1758 55.6836 12.1758C55.9102 12.1758 56.1211 12.2188 56.3164 12.3047C56.5117 12.3828 56.6797 12.4961 56.8203 12.6445C56.9688 12.7852 57.082 12.9531 57.1602 13.1484C57.2461 13.3438 57.2891 13.5547 57.2891 13.7812C57.2891 14.1328 57.2109 14.457 57.0547 14.7539C56.8984 15.043 56.6914 15.3047 56.4336 15.5391C56.1758 15.7656 55.8789 15.9648 55.543 16.1367C55.2148 16.3086 54.875 16.4492 54.5234 16.5586ZM60.9688 18.2227C60.8828 18.3711 60.7578 18.4453 60.5938 18.4453C60.4609 18.4453 60.3516 18.3984 60.2656 18.3047C60.1875 18.2109 60.1484 18.1094 60.1484 18C60.1484 17.9297 60.1602 17.8711 60.1836 17.8242C60.207 17.7773 60.2305 17.7344 60.2539 17.6953L69.7812 1.38281C69.8203 1.3125 69.875 1.25781 69.9453 1.21875C70.0234 1.17969 70.0977 1.16016 70.168 1.16016C70.3008 1.16016 70.4062 1.20703 70.4844 1.30078C70.5625 1.39453 70.6016 1.49609 70.6016 1.60547C70.6016 1.66016 70.5859 1.71875 70.5547 1.78125C70.5312 1.84375 70.5078 1.89453 70.4844 1.93359L60.9688 18.2227ZM72.4883 14.7656C72.4336 14.6875 72.4062 14.6055 72.4062 14.5195C72.4062 14.3633 72.4688 14.2422 72.5938 14.1562C72.9766 13.8984 73.3125 13.668 73.6016 13.4648C73.8906 13.2617 74.1562 13.0781 74.3984 12.9141C74.6406 12.7422 74.8672 12.582 75.0781 12.4336C75.2969 12.2852 75.5234 12.1367 75.7578 11.9883C76 11.832 76.2578 11.668 76.5312 11.4961C76.8125 11.3242 77.1367 11.1289 77.5039 10.9102C76.7305 10.4336 76.0391 9.95312 75.4297 9.46875C74.8203 8.97656 74.3008 8.53125 73.8711 8.13281C73.4414 7.73438 73.1055 7.40234 72.8633 7.13672C72.6289 6.87109 72.4961 6.71484 72.4648 6.66797C72.4102 6.60547 72.3828 6.51953 72.3828 6.41016C72.3828 6.29297 72.4258 6.19141 72.5117 6.10547C72.5977 6.01172 72.7031 5.96484 72.8281 5.96484C72.9688 5.96484 73.0859 6.02344 73.1797 6.14062C73.1875 6.14844 73.2539 6.22266 73.3789 6.36328C73.5039 6.50391 73.6797 6.6875 73.9062 6.91406C74.1328 7.14062 74.4062 7.40234 74.7266 7.69922C75.0469 7.99609 75.4062 8.30859 75.8047 8.63672C76.2109 8.95703 76.6484 9.28125 77.1172 9.60938C77.5938 9.92969 78.0938 10.2344 78.6172 10.5234C78.7812 10.6094 78.8633 10.7383 78.8633 10.9102C78.8633 11.0898 78.7891 11.2227 78.6406 11.3086C78.2344 11.5352 77.8711 11.7422 77.5508 11.9297C77.2383 12.1172 76.9453 12.3008 76.6719 12.4805C76.4062 12.6523 76.1484 12.8242 75.8984 12.9961C75.6484 13.1602 75.3828 13.3398 75.1016 13.5352C74.8281 13.7227 74.5312 13.9297 74.2109 14.1562C73.8906 14.375 73.5273 14.625 73.1211 14.9062C73.043 14.9609 72.9609 14.9883 72.875 14.9883C72.8047 14.9883 72.7305 14.9688 72.6523 14.9297C72.582 14.8828 72.5273 14.8281 72.4883 14.7656Z" fill="#5DFA80"/>
</g>
<defs>
<filter id="filter0_d_5_12" x="2.125" y="0.714844" width="80.7383" height="25.7539" filterUnits="userSpaceOnUse" color-interpolation-filters="sRGB">
<feFlood flood-opacity="0" result="BackgroundImageFix"/>
<feColorMatrix in="SourceAlpha" type="matrix" values="0 0 0 0 0 0 0 0 0 0 0 0 0 0 0 0 0 0 127 0" result="hardAlpha"/>
<feOffset dy="4"/>
<feGaussianBlur stdDeviation="2"/>
<feComposite in2="hardAlpha" operator="out"/>
<feColorMatrix type="matrix" values="0 0 0 0 0 0 0 0 0 0 0 0 0 0 0 0 0 0 0.25 0"/>
<feBlend mode="normal" in2="BackgroundImageFix" result="effect1_dropShadow_5_12"/>
<feBlend mode="normal" in="SourceGraphic" in2="effect1_dropShadow_5_12" result="shape"/>
</filter>
</defs>
</svg>
